<?xml version="1.0" standalone="no"?>
<!DOCTYPE svg PUBLIC "-//W3C//DTD SVG 20010904//EN"
 "http://www.w3.org/TR/2001/REC-SVG-20010904/DTD/svg10.dtd">
<svg version="1.0" xmlns="http://www.w3.org/2000/svg"
 width="225.000000pt" height="225.000000pt" viewBox="0 0 225.000000 225.000000"
 preserveAspectRatio="xMidYMid meet">
<metadata>
Created by potrace 1.11, written by Peter Selinger 2001-2013
</metadata>
<g transform="translate(0.000000,225.000000) scale(0.100000,-0.100000)"
fill="#000000" stroke="none">
<path d="M295 2036 c-37 -17 -80 -62 -94 -99 -8 -19 -11 -289 -11 -833 0 -661
2 -810 14 -837 16 -39 61 -82 99 -96 39 -15 1585 -15 1624 0 38 14 83 57 99
96 21 48 21 1628 0 1676 -16 39 -61 82 -99 96 -46 18 -1593 14 -1632 -3z
m1595 -931 l0 -795 -775 0 -775 0 0 795 0 795 775 0 775 0 0 -795z"/>
<path d="M1010 1724 c-106 -28 -180 -107 -180 -194 0 -52 43 -130 91 -165 l40
-30 -23 -15 c-87 -54 -137 -148 -124 -232 16 -97 79 -148 283 -229 164 -65
195 -82 228 -121 24 -28 27 -38 22 -82 -10 -103 -112 -153 -297 -143 -95 5
-142 15 -232 52 -15 6 -18 1 -18 -33 0 -37 3 -41 39 -55 67 -27 168 -40 280
-35 116 6 178 24 238 72 62 50 90 150 62 223 -13 34 -64 90 -102 109 l-28 15
38 28 c81 60 113 117 113 201 0 122 -66 179 -300 262 -159 56 -211 93 -225
159 -10 45 21 99 75 129 41 23 56 25 160 25 105 0 167 -11 236 -41 5 -2 18 11
27 31 l16 35 -53 15 c-128 37 -270 45 -366 19z m155 -465 c135 -49 195 -106
195 -184 0 -56 -74 -152 -130 -170 -22 -7 -126 28 -221 76 -79 39 -109 78
-109 140 0 74 32 124 105 163 35 18 45 16 160 -25z"/>
</g>
</svg>
