<svg xmlns="http://www.w3.org/2000/svg" width="768" height="768"><path d="M-303,-182L-21,-244L74,-274Z" fill="#e7f6b8" stroke="#e7f6b8" stroke-width="1.51"/><path d="M74,-274L477,-291L576,-324Z" fill="#abdac9" stroke="#abdac9" stroke-width="1.51"/><path d="M133,1057L-274,1097L677,1118Z" fill="#54738e" stroke="#54738e" stroke-width="1.51"/><path d="M851,-1L844,119L947,198Z" fill="#728aab" stroke="#728aab" stroke-width="1.51"/><path d="M851,-1L947,198L957,-146Z" fill="#838ca8" stroke="#838ca8" stroke-width="1.51"/><path d="M576,-324L886,-297L1055,-311Z" fill="#9d9fb9" stroke="#9d9fb9" stroke-width="1.51"/><path d="M957,-146L947,198L1055,-311Z" fill="#89899e" stroke="#89899e" stroke-width="1.51"/><path d="M952,267L831,413L1084,439Z" fill="#3f73a9" stroke="#3f73a9" stroke-width="1.51"/><path d="M842,683L960,735L1084,439Z" fill="#285aa3" stroke="#285aa3" stroke-width="1.51"/><path d="M831,413L842,683L1084,439Z" fill="#326aac" stroke="#326aac" stroke-width="1.51"/><path d="M967,863L939,1088L1084,439Z" fill="#214092" stroke="#214092" stroke-width="1.51"/><path d="M1055,-311L947,198L1084,439Z" fill="#687d98" stroke="#687d98" stroke-width="1.51"/><path d="M947,198L952,267L1084,439Z" fill="#4874a1" stroke="#4874a1" stroke-width="1.51"/><path d="M960,735L967,863L1084,439Z" fill="#234f98" stroke="#234f98" stroke-width="1.51"/><path d="M874,291L831,413L952,267Z" fill="#497dae" stroke="#497dae" stroke-width="1.51"/><path d="M886,-297L957,-146L1055,-311Z" fill="#978fa9" stroke="#978fa9" stroke-width="1.51"/><path d="M690,894L756,1119L939,1088Z" fill="#1e3e8c" stroke="#1e3e8c" stroke-width="1.51"/><path d="M690,894L939,1088L967,863Z" fill="#253c96" stroke="#253c96" stroke-width="1.51"/><path d="M833,755L690,894L967,863Z" fill="#264ca0" stroke="#264ca0" stroke-width="1.51"/><path d="M960,735L833,755L967,863Z" fill="#26489e" stroke="#26489e" stroke-width="1.51"/><path d="M947,198L874,291L952,267Z" fill="#557cab" stroke="#557cab" stroke-width="1.51"/><path d="M842,683L833,755L960,735Z" fill="#2654a4" stroke="#2654a4" stroke-width="1.51"/><path d="M886,-297L851,-1L957,-146Z" fill="#9594a8" stroke="#9594a8" stroke-width="1.51"/><path d="M844,119L874,291L947,198Z" fill="#5c84ab" stroke="#5c84ab" stroke-width="1.51"/><path d="M580,-67L851,-1L886,-297Z" fill="#93a3af" stroke="#93a3af" stroke-width="1.51"/><path d="M831,413L680,439L842,683Z" fill="#2d79b3" stroke="#2d79b3" stroke-width="1.51"/><path d="M844,119L713,369L874,291Z" fill="#5289b1" stroke="#5289b1" stroke-width="1.51"/><path d="M576,-324L580,-67L886,-297Z" fill="#9cb3ba" stroke="#9cb3ba" stroke-width="1.51"/><path d="M635,86L713,369L844,119Z" fill="#5d97b4" stroke="#5d97b4" stroke-width="1.51"/><path d="M713,369L831,413L874,291Z" fill="#4084b3" stroke="#4084b3" stroke-width="1.51"/><path d="M680,439L575,680L842,683Z" fill="#227ab6" stroke="#227ab6" stroke-width="1.51"/><path d="M635,86L844,119L851,-1Z" fill="#799ab0" stroke="#799ab0" stroke-width="1.51"/><path d="M580,-67L635,86L851,-1Z" fill="#86aab4" stroke="#86aab4" stroke-width="1.51"/><path d="M575,680L833,755L842,683Z" fill="#2365ac" stroke="#2365ac" stroke-width="1.51"/><path d="M690,894L677,1118L756,1119Z" fill="#1f488f" stroke="#1f488f" stroke-width="1.51"/><path d="M713,369L680,439L831,413Z" fill="#3588b7" stroke="#3588b7" stroke-width="1.51"/><path d="M575,680L690,894L833,755Z" fill="#2463ab" stroke="#2463ab" stroke-width="1.51"/><path d="M370,972L133,1057L677,1118Z" fill="#346a9a" stroke="#346a9a" stroke-width="1.51"/><path d="M513,990L677,1118L690,894Z" fill="#25569c" stroke="#25569c" stroke-width="1.51"/><path d="M635,86L558,339L713,369Z" fill="#50a1bb" stroke="#50a1bb" stroke-width="1.51"/><path d="M576,-324L489,-112L580,-67Z" fill="#9dc5ba" stroke="#9dc5ba" stroke-width="1.51"/><path d="M513,990L370,972L677,1118Z" fill="#29609c" stroke="#29609c" stroke-width="1.51"/><path d="M475,439L575,680L680,439Z" fill="#2595c0" stroke="#2595c0" stroke-width="1.51"/><path d="M575,680L488,884L690,894Z" fill="#276eb0" stroke="#276eb0" stroke-width="1.51"/><path d="M558,339L680,439L713,369Z" fill="#3698bd" stroke="#3698bd" stroke-width="1.51"/><path d="M443,147L558,339L635,86Z" fill="#5eb1be" stroke="#5eb1be" stroke-width="1.51"/><path d="M488,884L513,990L690,894Z" fill="#2c65ab" stroke="#2c65ab" stroke-width="1.51"/><path d="M558,339L475,439L680,439Z" fill="#31a1c2" stroke="#31a1c2" stroke-width="1.51"/><path d="M477,-291L489,-112L576,-324Z" fill="#a2cac2" stroke="#a2cac2" stroke-width="1.51"/><path d="M475,439L404,596L575,680Z" fill="#2899c1" stroke="#2899c1" stroke-width="1.51"/><path d="M580,-67L443,147L635,86Z" fill="#7ebabc" stroke="#7ebabc" stroke-width="1.51"/><path d="M404,596L488,884L575,680Z" fill="#2c84b7" stroke="#2c84b7" stroke-width="1.51"/><path d="M489,-112L364,-31L580,-67Z" fill="#96c9bc" stroke="#96c9bc" stroke-width="1.51"/><path d="M364,-31L443,147L580,-67Z" fill="#8bc7bc" stroke="#8bc7bc" stroke-width="1.51"/><path d="M404,596L311,850L488,884Z" fill="#3785b5" stroke="#3785b5" stroke-width="1.51"/><path d="M477,-291L381,-220L489,-112Z" fill="#a4d0bf" stroke="#a4d0bf" stroke-width="1.51"/><path d="M318,362L475,439L558,339Z" fill="#3dafc4" stroke="#3dafc4" stroke-width="1.51"/><path d="M443,147L318,362L558,339Z" fill="#53b7c1" stroke="#53b7c1" stroke-width="1.51"/><path d="M354,142L318,362L443,147Z" fill="#63c1c0" stroke="#63c1c0" stroke-width="1.51"/><path d="M74,-274L381,-220L477,-291Z" fill="#b2ddc3" stroke="#b2ddc3" stroke-width="1.51"/><path d="M488,884L370,972L513,990Z" fill="#376caa" stroke="#376caa" stroke-width="1.51"/><path d="M364,-31L354,142L443,147Z" fill="#80c9be" stroke="#80c9be" stroke-width="1.51"/><path d="M381,-220L364,-31L489,-112Z" fill="#9ed1bc" stroke="#9ed1bc" stroke-width="1.51"/><path d="M311,850L370,972L488,884Z" fill="#3d78ae" stroke="#3d78ae" stroke-width="1.51"/><path d="M318,362L404,596L475,439Z" fill="#3aacc3" stroke="#3aacc3" stroke-width="1.51"/><path d="M219,573L311,850L404,596Z" fill="#4799ba" stroke="#4799ba" stroke-width="1.51"/><path d="M318,362L219,548L404,596Z" fill="#49aec2" stroke="#49aec2" stroke-width="1.51"/><path d="M219,573L133,689L311,850Z" fill="#579ab6" stroke="#579ab6" stroke-width="1.51"/><path d="M198,196L318,362L354,142Z" fill="#6ec5bf" stroke="#6ec5bf" stroke-width="1.51"/><path d="M141,-85L364,-31L381,-220Z" fill="#a9daba" stroke="#a9daba" stroke-width="1.51"/><path d="M219,548L219,573L404,596Z" fill="#4ca9c0" stroke="#4ca9c0" stroke-width="1.51"/><path d="M198,196L354,142L364,-31Z" fill="#87cebc" stroke="#87cebc" stroke-width="1.51"/><path d="M141,-85L198,196L364,-31Z" fill="#9fd8b9" stroke="#9fd8b9" stroke-width="1.51"/><path d="M74,-274L141,-85L381,-220Z" fill="#bbe3b9" stroke="#bbe3b9" stroke-width="1.51"/><path d="M311,850L133,1057L370,972Z" fill="#5178a7" stroke="#5178a7" stroke-width="1.51"/><path d="M30,904L133,1057L311,850Z" fill="#6780a9" stroke="#6780a9" stroke-width="1.51"/><path d="M166,358L219,548L318,362Z" fill="#5cbbc0" stroke="#5cbbc0" stroke-width="1.51"/><path d="M198,196L166,358L318,362Z" fill="#6cc4be" stroke="#6cc4be" stroke-width="1.51"/><path d="M133,689L30,904L311,850Z" fill="#668faf" stroke="#668faf" stroke-width="1.51"/><path d="M141,-85L-59,188L198,196Z" fill="#a9dcb7" stroke="#a9dcb7" stroke-width="1.51"/><path d="M51,505L133,689L219,573Z" fill="#6bb0bc" stroke="#6bb0bc" stroke-width="1.51"/><path d="M51,505L219,573L219,548Z" fill="#66b3be" stroke="#66b3be" stroke-width="1.51"/><path d="M166,358L51,505L219,548Z" fill="#6ebdbe" stroke="#6ebdbe" stroke-width="1.51"/><path d="M-59,188L166,358L198,196Z" fill="#8ed1bb" stroke="#8ed1bb" stroke-width="1.51"/><path d="M-151,-92L-180,-37L-59,188Z" fill="#d5eeb3" stroke="#d5eeb3" stroke-width="1.51"/><path d="M51,505L-43,609L133,689Z" fill="#7fb5ba" stroke="#7fb5ba" stroke-width="1.51"/><path d="M-151,-92L-59,188L141,-85Z" fill="#ccebb4" stroke="#ccebb4" stroke-width="1.51"/><path d="M74,-274L-21,-244L141,-85Z" fill="#d3edb7" stroke="#d3edb7" stroke-width="1.51"/><path d="M-60,380L51,505L166,358Z" fill="#86c9bd" stroke="#86c9bd" stroke-width="1.51"/><path d="M-59,188L-60,380L166,358Z" fill="#98d4ba" stroke="#98d4ba" stroke-width="1.51"/><path d="M-54,881L30,904L133,689Z" fill="#7f96ad" stroke="#7f96ad" stroke-width="1.51"/><path d="M-43,609L-54,881L133,689Z" fill="#84a4b2" stroke="#84a4b2" stroke-width="1.51"/><path d="M-160,947L-274,1097L133,1057Z" fill="#868696" stroke="#868696" stroke-width="1.51"/><path d="M-21,-244L-151,-92L141,-85Z" fill="#daf0b3" stroke="#daf0b3" stroke-width="1.51"/><path d="M30,904L-160,947L133,1057Z" fill="#8288a2" stroke="#8288a2" stroke-width="1.51"/><path d="M-172,688L-184,779L-54,881Z" fill="#94a2ae" stroke="#94a2ae" stroke-width="1.51"/><path d="M-172,688L-54,881L-43,609Z" fill="#90a8b1" stroke="#90a8b1" stroke-width="1.51"/><path d="M-54,881L-160,947L30,904Z" fill="#8c90a8" stroke="#8c90a8" stroke-width="1.51"/><path d="M-60,380L-74,438L51,505Z" fill="#92cabc" stroke="#92cabc" stroke-width="1.51"/><path d="M-74,438L-43,609L51,505Z" fill="#8ec2bb" stroke="#8ec2bb" stroke-width="1.51"/><path d="M-266,229L-60,380L-59,188Z" fill="#adddb9" stroke="#adddb9" stroke-width="1.51"/><path d="M-303,-182L-151,-92L-21,-244Z" fill="#ecf8b1" stroke="#ecf8b1" stroke-width="1.51"/><path d="M-180,-37L-266,229L-59,188Z" fill="#c6e8b5" stroke="#c6e8b5" stroke-width="1.51"/><path d="M-74,438L-172,688L-43,609Z" fill="#94beba" stroke="#94beba" stroke-width="1.51"/><path d="M-336,98L-266,229L-180,-37Z" fill="#d0ecbe" stroke="#d0ecbe" stroke-width="1.51"/><path d="M-335,433L-172,688L-74,438Z" fill="#a0c9bd" stroke="#a0c9bd" stroke-width="1.51"/><path d="M-184,779L-160,947L-54,881Z" fill="#9497aa" stroke="#9497aa" stroke-width="1.51"/><path d="M-335,433L-74,438L-60,380Z" fill="#a2d2bb" stroke="#a2d2bb" stroke-width="1.51"/><path d="M-266,229L-335,433L-60,380Z" fill="#acdac0" stroke="#acdac0" stroke-width="1.51"/><path d="M-303,-182L-180,-37L-151,-92Z" fill="#e8f7b6" stroke="#e8f7b6" stroke-width="1.51"/><path d="M-184,779L-274,1097L-160,947Z" fill="#9890a9" stroke="#9890a9" stroke-width="1.51"/><path d="M-335,433L-184,779L-172,688Z" fill="#9ebabd" stroke="#9ebabd" stroke-width="1.51"/><path d="M-303,-182L-336,98L-180,-37Z" fill="#e5f5bd" stroke="#e5f5bd" stroke-width="1.51"/><path d="M-335,433L-274,1097L-184,779Z" fill="#9ba7b8" stroke="#9ba7b8" stroke-width="1.51"/><path d="M-336,98L-335,433L-266,229Z" fill="#bae1c7" stroke="#bae1c7" stroke-width="1.51"/></svg>